<mxfile host="app.diagrams.net" agent="Mozilla/5.0 (Windows NT 10.0; Win64; x64) AppleWebKit/537.36 (KHTML, like Gecko) Chrome/132.0.0.0 Safari/537.36" version="26.0.14">
  <diagram name="PÃ¡gina-1" id="THV_jR3SFHk6CQtBX6WG">
    <mxGraphModel dx="2580" dy="1653" grid="1" gridSize="10" guides="1" tooltips="1" connect="1" arrows="1" fold="1" page="1" pageScale="1" pageWidth="827" pageHeight="1169" math="0" shadow="0">
      <root>
        <mxCell id="0" />
        <mxCell id="1" parent="0" />
        <mxCell id="6sBdYNOKg4DvN8dYeQ6p-444" value="" style="verticalLabelPosition=bottom;html=1;verticalAlign=top;align=center;shape=mxgraph.floorplan.room;fillColor=strokeColor;rotation=-90;" vertex="1" parent="1">
          <mxGeometry x="-1535" y="-325" width="980" height="10" as="geometry" />
        </mxCell>
        <mxCell id="6sBdYNOKg4DvN8dYeQ6p-445" value="" style="verticalLabelPosition=bottom;html=1;verticalAlign=top;align=center;shape=mxgraph.floorplan.room;fillColor=strokeColor;rotation=90;" vertex="1" parent="1">
          <mxGeometry x="-445" y="-445" width="10" height="1220" as="geometry" />
        </mxCell>
        <mxCell id="6sBdYNOKg4DvN8dYeQ6p-446" value="" style="verticalLabelPosition=bottom;html=1;verticalAlign=top;align=center;shape=mxgraph.floorplan.room;fillColor=strokeColor;rotation=90;" vertex="1" parent="1">
          <mxGeometry x="-445" y="-1415" width="10" height="1220" as="geometry" />
        </mxCell>
        <mxCell id="6sBdYNOKg4DvN8dYeQ6p-447" value="" style="verticalLabelPosition=bottom;html=1;verticalAlign=top;align=center;shape=mxgraph.floorplan.room;fillColor=strokeColor;rotation=-90;" vertex="1" parent="1">
          <mxGeometry x="-325" y="-325" width="980" height="10" as="geometry" />
        </mxCell>
        <mxCell id="6sBdYNOKg4DvN8dYeQ6p-448" value="" style="verticalLabelPosition=bottom;html=1;verticalAlign=top;align=center;shape=mxgraph.floorplan.doorUneven;dx=0.5;" vertex="1" parent="1">
          <mxGeometry x="-497.5" y="160" width="115" height="50" as="geometry" />
        </mxCell>
        <mxCell id="6sBdYNOKg4DvN8dYeQ6p-470" value="" style="verticalLabelPosition=bottom;html=1;verticalAlign=top;align=center;shape=mxgraph.floorplan.chair;strokeColor=default;fontFamily=Helvetica;fontSize=12;fontColor=default;fillColor=default;rotation=-180;" vertex="1" parent="1">
          <mxGeometry x="-355" y="120" width="30" height="40" as="geometry" />
        </mxCell>
        <mxCell id="6sBdYNOKg4DvN8dYeQ6p-471" value="" style="verticalLabelPosition=bottom;html=1;verticalAlign=top;align=center;shape=mxgraph.floorplan.chair;strokeColor=default;fontFamily=Helvetica;fontSize=12;fontColor=default;fillColor=default;rotation=-180;" vertex="1" parent="1">
          <mxGeometry x="-315" y="120" width="30" height="40" as="geometry" />
        </mxCell>
        <mxCell id="6sBdYNOKg4DvN8dYeQ6p-472" value="" style="verticalLabelPosition=bottom;html=1;verticalAlign=top;align=center;shape=mxgraph.floorplan.chair;strokeColor=default;fontFamily=Helvetica;fontSize=12;fontColor=default;fillColor=default;rotation=-180;" vertex="1" parent="1">
          <mxGeometry x="-275" y="120" width="30" height="40" as="geometry" />
        </mxCell>
        <mxCell id="6sBdYNOKg4DvN8dYeQ6p-473" value="" style="verticalLabelPosition=bottom;html=1;verticalAlign=top;align=center;shape=mxgraph.floorplan.chair;strokeColor=default;fontFamily=Helvetica;fontSize=12;fontColor=default;fillColor=default;rotation=-180;" vertex="1" parent="1">
          <mxGeometry x="-235" y="120" width="30" height="40" as="geometry" />
        </mxCell>
        <mxCell id="6sBdYNOKg4DvN8dYeQ6p-474" value="" style="verticalLabelPosition=bottom;html=1;verticalAlign=top;align=center;shape=mxgraph.floorplan.chair;strokeColor=default;fontFamily=Helvetica;fontSize=12;fontColor=default;fillColor=default;rotation=-180;" vertex="1" parent="1">
          <mxGeometry x="-195" y="120" width="30" height="40" as="geometry" />
        </mxCell>
        <mxCell id="6sBdYNOKg4DvN8dYeQ6p-475" value="" style="verticalLabelPosition=bottom;html=1;verticalAlign=top;align=center;shape=mxgraph.floorplan.chair;strokeColor=default;fontFamily=Helvetica;fontSize=12;fontColor=default;fillColor=default;rotation=-180;" vertex="1" parent="1">
          <mxGeometry x="-155" y="120" width="30" height="40" as="geometry" />
        </mxCell>
        <mxCell id="6sBdYNOKg4DvN8dYeQ6p-476" value="" style="verticalLabelPosition=bottom;html=1;verticalAlign=top;align=center;shape=mxgraph.floorplan.chair;strokeColor=default;fontFamily=Helvetica;fontSize=12;fontColor=default;fillColor=default;rotation=-180;" vertex="1" parent="1">
          <mxGeometry x="-355" y="40" width="30" height="40" as="geometry" />
        </mxCell>
        <mxCell id="6sBdYNOKg4DvN8dYeQ6p-477" value="" style="verticalLabelPosition=bottom;html=1;verticalAlign=top;align=center;shape=mxgraph.floorplan.chair;strokeColor=default;fontFamily=Helvetica;fontSize=12;fontColor=default;fillColor=default;rotation=-180;" vertex="1" parent="1">
          <mxGeometry x="-315" y="40" width="30" height="40" as="geometry" />
        </mxCell>
        <mxCell id="6sBdYNOKg4DvN8dYeQ6p-478" value="" style="verticalLabelPosition=bottom;html=1;verticalAlign=top;align=center;shape=mxgraph.floorplan.chair;strokeColor=default;fontFamily=Helvetica;fontSize=12;fontColor=default;fillColor=default;rotation=-180;" vertex="1" parent="1">
          <mxGeometry x="-275" y="40" width="30" height="40" as="geometry" />
        </mxCell>
        <mxCell id="6sBdYNOKg4DvN8dYeQ6p-479" value="" style="verticalLabelPosition=bottom;html=1;verticalAlign=top;align=center;shape=mxgraph.floorplan.chair;strokeColor=default;fontFamily=Helvetica;fontSize=12;fontColor=default;fillColor=default;rotation=-180;" vertex="1" parent="1">
          <mxGeometry x="-235" y="40" width="30" height="40" as="geometry" />
        </mxCell>
        <mxCell id="6sBdYNOKg4DvN8dYeQ6p-480" value="" style="verticalLabelPosition=bottom;html=1;verticalAlign=top;align=center;shape=mxgraph.floorplan.chair;strokeColor=default;fontFamily=Helvetica;fontSize=12;fontColor=default;fillColor=default;rotation=-180;" vertex="1" parent="1">
          <mxGeometry x="-195" y="40" width="30" height="40" as="geometry" />
        </mxCell>
        <mxCell id="6sBdYNOKg4DvN8dYeQ6p-481" value="" style="verticalLabelPosition=bottom;html=1;verticalAlign=top;align=center;shape=mxgraph.floorplan.chair;strokeColor=default;fontFamily=Helvetica;fontSize=12;fontColor=default;fillColor=default;rotation=-180;" vertex="1" parent="1">
          <mxGeometry x="-155" y="40" width="30" height="40" as="geometry" />
        </mxCell>
        <mxCell id="6sBdYNOKg4DvN8dYeQ6p-482" value="" style="verticalLabelPosition=bottom;html=1;verticalAlign=top;align=center;shape=mxgraph.floorplan.chair;strokeColor=default;fontFamily=Helvetica;fontSize=12;fontColor=default;fillColor=default;rotation=-180;" vertex="1" parent="1">
          <mxGeometry x="-355" y="-40" width="30" height="40" as="geometry" />
        </mxCell>
        <mxCell id="6sBdYNOKg4DvN8dYeQ6p-483" value="" style="verticalLabelPosition=bottom;html=1;verticalAlign=top;align=center;shape=mxgraph.floorplan.chair;strokeColor=default;fontFamily=Helvetica;fontSize=12;fontColor=default;fillColor=default;rotation=-180;" vertex="1" parent="1">
          <mxGeometry x="-315" y="-40" width="30" height="40" as="geometry" />
        </mxCell>
        <mxCell id="6sBdYNOKg4DvN8dYeQ6p-484" value="" style="verticalLabelPosition=bottom;html=1;verticalAlign=top;align=center;shape=mxgraph.floorplan.chair;strokeColor=default;fontFamily=Helvetica;fontSize=12;fontColor=default;fillColor=default;rotation=-180;" vertex="1" parent="1">
          <mxGeometry x="-275" y="-40" width="30" height="40" as="geometry" />
        </mxCell>
        <mxCell id="6sBdYNOKg4DvN8dYeQ6p-485" value="" style="verticalLabelPosition=bottom;html=1;verticalAlign=top;align=center;shape=mxgraph.floorplan.chair;strokeColor=default;fontFamily=Helvetica;fontSize=12;fontColor=default;fillColor=default;rotation=-180;" vertex="1" parent="1">
          <mxGeometry x="-235" y="-40" width="30" height="40" as="geometry" />
        </mxCell>
        <mxCell id="6sBdYNOKg4DvN8dYeQ6p-486" value="" style="verticalLabelPosition=bottom;html=1;verticalAlign=top;align=center;shape=mxgraph.floorplan.chair;strokeColor=default;fontFamily=Helvetica;fontSize=12;fontColor=default;fillColor=default;rotation=-180;" vertex="1" parent="1">
          <mxGeometry x="-195" y="-40" width="30" height="40" as="geometry" />
        </mxCell>
        <mxCell id="6sBdYNOKg4DvN8dYeQ6p-487" value="" style="verticalLabelPosition=bottom;html=1;verticalAlign=top;align=center;shape=mxgraph.floorplan.chair;strokeColor=default;fontFamily=Helvetica;fontSize=12;fontColor=default;fillColor=default;rotation=-180;" vertex="1" parent="1">
          <mxGeometry x="-155" y="-40" width="30" height="40" as="geometry" />
        </mxCell>
        <mxCell id="6sBdYNOKg4DvN8dYeQ6p-488" value="" style="verticalLabelPosition=bottom;html=1;verticalAlign=top;align=center;shape=mxgraph.floorplan.chair;strokeColor=default;fontFamily=Helvetica;fontSize=12;fontColor=default;fillColor=default;rotation=-180;" vertex="1" parent="1">
          <mxGeometry x="-75" y="-40" width="30" height="40" as="geometry" />
        </mxCell>
        <mxCell id="6sBdYNOKg4DvN8dYeQ6p-489" value="" style="verticalLabelPosition=bottom;html=1;verticalAlign=top;align=center;shape=mxgraph.floorplan.chair;strokeColor=default;fontFamily=Helvetica;fontSize=12;fontColor=default;fillColor=default;rotation=-180;" vertex="1" parent="1">
          <mxGeometry x="-35" y="-40" width="30" height="40" as="geometry" />
        </mxCell>
        <mxCell id="6sBdYNOKg4DvN8dYeQ6p-490" value="" style="verticalLabelPosition=bottom;html=1;verticalAlign=top;align=center;shape=mxgraph.floorplan.chair;strokeColor=default;fontFamily=Helvetica;fontSize=12;fontColor=default;fillColor=default;rotation=-180;" vertex="1" parent="1">
          <mxGeometry x="5" y="-40" width="30" height="40" as="geometry" />
        </mxCell>
        <mxCell id="6sBdYNOKg4DvN8dYeQ6p-491" value="" style="verticalLabelPosition=bottom;html=1;verticalAlign=top;align=center;shape=mxgraph.floorplan.chair;strokeColor=default;fontFamily=Helvetica;fontSize=12;fontColor=default;fillColor=default;rotation=-180;" vertex="1" parent="1">
          <mxGeometry x="45" y="-40" width="30" height="40" as="geometry" />
        </mxCell>
        <mxCell id="6sBdYNOKg4DvN8dYeQ6p-492" value="" style="verticalLabelPosition=bottom;html=1;verticalAlign=top;align=center;shape=mxgraph.floorplan.chair;strokeColor=default;fontFamily=Helvetica;fontSize=12;fontColor=default;fillColor=default;rotation=-180;" vertex="1" parent="1">
          <mxGeometry x="85" y="-40" width="30" height="40" as="geometry" />
        </mxCell>
        <mxCell id="6sBdYNOKg4DvN8dYeQ6p-493" value="" style="verticalLabelPosition=bottom;html=1;verticalAlign=top;align=center;shape=mxgraph.floorplan.chair;strokeColor=default;fontFamily=Helvetica;fontSize=12;fontColor=default;fillColor=default;rotation=-180;" vertex="1" parent="1">
          <mxGeometry x="125" y="-40" width="30" height="40" as="geometry" />
        </mxCell>
        <mxCell id="6sBdYNOKg4DvN8dYeQ6p-494" value="" style="verticalLabelPosition=bottom;html=1;verticalAlign=top;align=center;shape=mxgraph.floorplan.chair;strokeColor=default;fontFamily=Helvetica;fontSize=12;fontColor=default;fillColor=default;rotation=-180;" vertex="1" parent="1">
          <mxGeometry x="-75" y="40" width="30" height="40" as="geometry" />
        </mxCell>
        <mxCell id="6sBdYNOKg4DvN8dYeQ6p-495" value="" style="verticalLabelPosition=bottom;html=1;verticalAlign=top;align=center;shape=mxgraph.floorplan.chair;strokeColor=default;fontFamily=Helvetica;fontSize=12;fontColor=default;fillColor=default;rotation=-180;" vertex="1" parent="1">
          <mxGeometry x="-35" y="40" width="30" height="40" as="geometry" />
        </mxCell>
        <mxCell id="6sBdYNOKg4DvN8dYeQ6p-496" value="" style="verticalLabelPosition=bottom;html=1;verticalAlign=top;align=center;shape=mxgraph.floorplan.chair;strokeColor=default;fontFamily=Helvetica;fontSize=12;fontColor=default;fillColor=default;rotation=-180;" vertex="1" parent="1">
          <mxGeometry x="5" y="40" width="30" height="40" as="geometry" />
        </mxCell>
        <mxCell id="6sBdYNOKg4DvN8dYeQ6p-497" value="" style="verticalLabelPosition=bottom;html=1;verticalAlign=top;align=center;shape=mxgraph.floorplan.chair;strokeColor=default;fontFamily=Helvetica;fontSize=12;fontColor=default;fillColor=default;rotation=-180;" vertex="1" parent="1">
          <mxGeometry x="45" y="40" width="30" height="40" as="geometry" />
        </mxCell>
        <mxCell id="6sBdYNOKg4DvN8dYeQ6p-498" value="" style="verticalLabelPosition=bottom;html=1;verticalAlign=top;align=center;shape=mxgraph.floorplan.chair;strokeColor=default;fontFamily=Helvetica;fontSize=12;fontColor=default;fillColor=default;rotation=-180;" vertex="1" parent="1">
          <mxGeometry x="85" y="40" width="30" height="40" as="geometry" />
        </mxCell>
        <mxCell id="6sBdYNOKg4DvN8dYeQ6p-499" value="" style="verticalLabelPosition=bottom;html=1;verticalAlign=top;align=center;shape=mxgraph.floorplan.chair;strokeColor=default;fontFamily=Helvetica;fontSize=12;fontColor=default;fillColor=default;rotation=-180;" vertex="1" parent="1">
          <mxGeometry x="125" y="40" width="30" height="40" as="geometry" />
        </mxCell>
        <mxCell id="6sBdYNOKg4DvN8dYeQ6p-500" value="" style="verticalLabelPosition=bottom;html=1;verticalAlign=top;align=center;shape=mxgraph.floorplan.chair;strokeColor=default;fontFamily=Helvetica;fontSize=12;fontColor=default;fillColor=default;rotation=-180;" vertex="1" parent="1">
          <mxGeometry x="-75" y="120" width="30" height="40" as="geometry" />
        </mxCell>
        <mxCell id="6sBdYNOKg4DvN8dYeQ6p-501" value="" style="verticalLabelPosition=bottom;html=1;verticalAlign=top;align=center;shape=mxgraph.floorplan.chair;strokeColor=default;fontFamily=Helvetica;fontSize=12;fontColor=default;fillColor=default;rotation=-180;" vertex="1" parent="1">
          <mxGeometry x="-35" y="120" width="30" height="40" as="geometry" />
        </mxCell>
        <mxCell id="6sBdYNOKg4DvN8dYeQ6p-502" value="" style="verticalLabelPosition=bottom;html=1;verticalAlign=top;align=center;shape=mxgraph.floorplan.chair;strokeColor=default;fontFamily=Helvetica;fontSize=12;fontColor=default;fillColor=default;rotation=-180;" vertex="1" parent="1">
          <mxGeometry x="5" y="120" width="30" height="40" as="geometry" />
        </mxCell>
        <mxCell id="6sBdYNOKg4DvN8dYeQ6p-503" value="" style="verticalLabelPosition=bottom;html=1;verticalAlign=top;align=center;shape=mxgraph.floorplan.chair;strokeColor=default;fontFamily=Helvetica;fontSize=12;fontColor=default;fillColor=default;rotation=-180;" vertex="1" parent="1">
          <mxGeometry x="45" y="120" width="30" height="40" as="geometry" />
        </mxCell>
        <mxCell id="6sBdYNOKg4DvN8dYeQ6p-504" value="" style="verticalLabelPosition=bottom;html=1;verticalAlign=top;align=center;shape=mxgraph.floorplan.chair;strokeColor=default;fontFamily=Helvetica;fontSize=12;fontColor=default;fillColor=default;rotation=-180;" vertex="1" parent="1">
          <mxGeometry x="85" y="120" width="30" height="40" as="geometry" />
        </mxCell>
        <mxCell id="6sBdYNOKg4DvN8dYeQ6p-505" value="" style="verticalLabelPosition=bottom;html=1;verticalAlign=top;align=center;shape=mxgraph.floorplan.chair;strokeColor=default;fontFamily=Helvetica;fontSize=12;fontColor=default;fillColor=default;rotation=-180;" vertex="1" parent="1">
          <mxGeometry x="125" y="120" width="30" height="40" as="geometry" />
        </mxCell>
        <mxCell id="6sBdYNOKg4DvN8dYeQ6p-507" value="" style="verticalLabelPosition=bottom;html=1;verticalAlign=top;align=center;shape=mxgraph.floorplan.table;strokeColor=default;fontFamily=Helvetica;fontSize=12;fontColor=default;fillColor=default;" vertex="1" parent="1">
          <mxGeometry x="-231" y="-160" width="270" height="40" as="geometry" />
        </mxCell>
        <mxCell id="6sBdYNOKg4DvN8dYeQ6p-508" value="" style="verticalLabelPosition=bottom;html=1;verticalAlign=top;align=center;shape=mxgraph.floorplan.workstation;strokeColor=default;fontFamily=Helvetica;fontSize=12;fontColor=default;fillColor=default;rotation=-180;" vertex="1" parent="1">
          <mxGeometry x="-160.5" y="-160" width="50" height="40" as="geometry" />
        </mxCell>
        <mxCell id="6sBdYNOKg4DvN8dYeQ6p-510" value="" style="verticalLabelPosition=bottom;html=1;verticalAlign=top;align=center;shape=mxgraph.floorplan.workstation;strokeColor=default;fontFamily=Helvetica;fontSize=12;fontColor=default;fillColor=default;rotation=-180;" vertex="1" parent="1">
          <mxGeometry x="-89.5" y="-160" width="50" height="40" as="geometry" />
        </mxCell>
        <mxCell id="6sBdYNOKg4DvN8dYeQ6p-512" value="" style="verticalLabelPosition=bottom;html=1;verticalAlign=top;align=center;shape=mxgraph.floorplan.office_chair;strokeColor=default;fontFamily=Helvetica;fontSize=12;fontColor=default;fillColor=default;" vertex="1" parent="1">
          <mxGeometry x="-155" y="-210" width="40" height="43" as="geometry" />
        </mxCell>
        <mxCell id="6sBdYNOKg4DvN8dYeQ6p-513" value="" style="verticalLabelPosition=bottom;html=1;verticalAlign=top;align=center;shape=mxgraph.floorplan.office_chair;strokeColor=default;fontFamily=Helvetica;fontSize=12;fontColor=default;fillColor=default;" vertex="1" parent="1">
          <mxGeometry x="-85" y="-210" width="40" height="43" as="geometry" />
        </mxCell>
        <mxCell id="6sBdYNOKg4DvN8dYeQ6p-515" value="" style="verticalLabelPosition=bottom;html=1;verticalAlign=top;align=center;shape=mxgraph.floorplan.wall;fillColor=strokeColor;strokeColor=default;fontFamily=Helvetica;fontSize=12;fontColor=default;" vertex="1" parent="1">
          <mxGeometry x="40" y="-130" width="120" height="10" as="geometry" />
        </mxCell>
        <mxCell id="6sBdYNOKg4DvN8dYeQ6p-516" value="" style="verticalLabelPosition=bottom;html=1;verticalAlign=top;align=center;shape=mxgraph.floorplan.wall;fillColor=strokeColor;strokeColor=default;fontFamily=Helvetica;fontSize=12;fontColor=default;" vertex="1" parent="1">
          <mxGeometry x="-351" y="-130" width="120" height="10" as="geometry" />
        </mxCell>
        <mxCell id="6sBdYNOKg4DvN8dYeQ6p-517" value="" style="verticalLabelPosition=bottom;html=1;verticalAlign=top;align=center;shape=mxgraph.floorplan.wall;fillColor=strokeColor;direction=south;strokeColor=default;fontFamily=Helvetica;fontSize=12;fontColor=default;" vertex="1" parent="1">
          <mxGeometry x="-359" y="-220" width="9" height="100" as="geometry" />
        </mxCell>
        <mxCell id="6sBdYNOKg4DvN8dYeQ6p-521" value="" style="verticalLabelPosition=bottom;html=1;verticalAlign=top;align=center;shape=mxgraph.floorplan.doorRight;aspect=fixed;strokeColor=default;fontFamily=Helvetica;fontSize=12;fontColor=default;fillColor=default;rotation=-90;" vertex="1" parent="1">
          <mxGeometry x="-358.28" y="-260.72" width="39" height="41.44" as="geometry" />
        </mxCell>
        <mxCell id="6sBdYNOKg4DvN8dYeQ6p-522" value="" style="verticalLabelPosition=bottom;html=1;verticalAlign=top;align=center;shape=mxgraph.floorplan.dresser;strokeColor=default;fontFamily=Helvetica;fontSize=12;fontColor=default;fillColor=default;rotation=-180;" vertex="1" parent="1">
          <mxGeometry x="50" y="-202.5" width="100" height="65" as="geometry" />
        </mxCell>
        <mxCell id="6sBdYNOKg4DvN8dYeQ6p-524" value="" style="verticalLabelPosition=bottom;html=1;verticalAlign=top;align=center;shape=mxgraph.floorplan.printer;strokeColor=default;fontFamily=Helvetica;fontSize=12;fontColor=default;fillColor=default;rotation=90;" vertex="1" parent="1">
          <mxGeometry x="79" y="-188.5" width="40" height="47" as="geometry" />
        </mxCell>
        <mxCell id="6sBdYNOKg4DvN8dYeQ6p-525" value="" style="verticalLabelPosition=bottom;html=1;verticalAlign=top;align=center;shape=mxgraph.floorplan.plant;strokeColor=default;fontFamily=Helvetica;fontSize=12;fontColor=default;fillColor=default;" vertex="1" parent="1">
          <mxGeometry x="121" y="-111" width="30" height="31" as="geometry" />
        </mxCell>
        <mxCell id="6sBdYNOKg4DvN8dYeQ6p-526" value="" style="verticalLabelPosition=bottom;html=1;verticalAlign=top;align=center;shape=mxgraph.floorplan.plant;strokeColor=default;fontFamily=Helvetica;fontSize=12;fontColor=default;fillColor=default;" vertex="1" parent="1">
          <mxGeometry x="-351.28" y="-111" width="30" height="31" as="geometry" />
        </mxCell>
        <mxCell id="6sBdYNOKg4DvN8dYeQ6p-527" value="" style="verticalLabelPosition=bottom;html=1;verticalAlign=top;align=center;shape=mxgraph.floorplan.couch;strokeColor=default;fontFamily=Helvetica;fontSize=12;fontColor=default;fillColor=default;rotation=90;" vertex="1" parent="1">
          <mxGeometry x="-580.75" y="61" width="72.5" height="30" as="geometry" />
        </mxCell>
        <mxCell id="6sBdYNOKg4DvN8dYeQ6p-528" value="" style="verticalLabelPosition=bottom;html=1;verticalAlign=top;align=center;shape=mxgraph.floorplan.couch;strokeColor=default;fontFamily=Helvetica;fontSize=12;fontColor=default;fillColor=default;rotation=-180;" vertex="1" parent="1">
          <mxGeometry x="-635" y="119.75" width="72.5" height="30" as="geometry" />
        </mxCell>
        <mxCell id="6sBdYNOKg4DvN8dYeQ6p-529" value="" style="verticalLabelPosition=bottom;html=1;verticalAlign=top;align=center;shape=mxgraph.floorplan.plant;strokeColor=default;fontFamily=Helvetica;fontSize=12;fontColor=default;fillColor=default;" vertex="1" parent="1">
          <mxGeometry x="-555" y="119.75" width="25" height="25" as="geometry" />
        </mxCell>
        <mxCell id="6sBdYNOKg4DvN8dYeQ6p-530" value="" style="verticalLabelPosition=bottom;html=1;verticalAlign=top;align=center;shape=mxgraph.floorplan.table;strokeColor=default;fontFamily=Helvetica;fontSize=12;fontColor=default;fillColor=default;" vertex="1" parent="1">
          <mxGeometry x="-623.75" y="51" width="50" height="50" as="geometry" />
        </mxCell>
        <mxCell id="6sBdYNOKg4DvN8dYeQ6p-531" value="" style="verticalLabelPosition=bottom;html=1;verticalAlign=top;align=center;shape=mxgraph.floorplan.office_chair;shadow=0;strokeColor=default;fontFamily=Helvetica;fontSize=12;fontColor=default;fillColor=default;" vertex="1" parent="1">
          <mxGeometry x="-10" y="-445" width="40" height="43" as="geometry" />
        </mxCell>
        <mxCell id="6sBdYNOKg4DvN8dYeQ6p-532" value="" style="shape=rect;shadow=0;html=1;strokeColor=default;align=center;verticalAlign=top;fontFamily=Helvetica;fontSize=12;fontColor=default;fillColor=default;" vertex="1" parent="1">
          <mxGeometry x="-30" y="-425" width="80" height="50" as="geometry" />
        </mxCell>
        <mxCell id="6sBdYNOKg4DvN8dYeQ6p-533" value="" style="verticalLabelPosition=bottom;html=1;verticalAlign=top;align=center;shape=mxgraph.floorplan.workstation;shadow=0;flipV=1;strokeColor=default;fontFamily=Helvetica;fontSize=12;fontColor=default;fillColor=default;" vertex="1" parent="1">
          <mxGeometry x="-15" y="-415" width="50" height="40" as="geometry" />
        </mxCell>
        <mxCell id="6sBdYNOKg4DvN8dYeQ6p-536" value="" style="verticalLabelPosition=bottom;html=1;verticalAlign=top;align=center;shape=mxgraph.floorplan.wall;fillColor=strokeColor;direction=south;strokeColor=default;fontFamily=Helvetica;fontSize=12;fontColor=default;" vertex="1" parent="1">
          <mxGeometry x="-690" width="10" height="160" as="geometry" />
        </mxCell>
        <mxCell id="6sBdYNOKg4DvN8dYeQ6p-537" value="" style="verticalLabelPosition=bottom;html=1;verticalAlign=top;align=center;shape=mxgraph.floorplan.wall;fillColor=strokeColor;strokeColor=default;fontFamily=Helvetica;fontSize=12;fontColor=default;" vertex="1" parent="1">
          <mxGeometry x="-840" width="100" height="10" as="geometry" />
        </mxCell>
        <mxCell id="6sBdYNOKg4DvN8dYeQ6p-538" value="" style="verticalLabelPosition=bottom;html=1;verticalAlign=top;align=center;shape=mxgraph.floorplan.wall;fillColor=strokeColor;direction=south;strokeColor=default;fontFamily=Helvetica;fontSize=12;fontColor=default;" vertex="1" parent="1">
          <mxGeometry x="-840" y="10" width="10" height="150" as="geometry" />
        </mxCell>
        <mxCell id="6sBdYNOKg4DvN8dYeQ6p-539" value="" style="verticalLabelPosition=bottom;html=1;verticalAlign=top;align=center;shape=mxgraph.floorplan.doorRight;aspect=fixed;strokeColor=default;fontFamily=Helvetica;fontSize=12;fontColor=default;fillColor=default;" vertex="1" parent="1">
          <mxGeometry x="-740" width="50" height="53.13" as="geometry" />
        </mxCell>
        <mxCell id="6sBdYNOKg4DvN8dYeQ6p-540" value="" style="verticalLabelPosition=bottom;html=1;verticalAlign=top;align=center;shape=mxgraph.floorplan.toilet;strokeColor=default;fontFamily=Helvetica;fontSize=12;fontColor=default;fillColor=default;rotation=-90;direction=north;" vertex="1" parent="1">
          <mxGeometry x="-814.375" y="132.005" width="29.75" height="25" as="geometry" />
        </mxCell>
        <mxCell id="6sBdYNOKg4DvN8dYeQ6p-541" value="" style="verticalLabelPosition=bottom;html=1;verticalAlign=top;align=center;shape=mxgraph.floorplan.sink_22;strokeColor=default;fontFamily=Helvetica;fontSize=12;fontColor=default;fillColor=default;" vertex="1" parent="1">
          <mxGeometry x="-805" y="10" width="30" height="20" as="geometry" />
        </mxCell>
        <mxCell id="6sBdYNOKg4DvN8dYeQ6p-542" value="" style="verticalLabelPosition=bottom;html=1;verticalAlign=top;align=center;shape=mxgraph.floorplan.wall;fillColor=strokeColor;direction=south;strokeColor=default;fontFamily=Helvetica;fontSize=12;fontColor=default;" vertex="1" parent="1">
          <mxGeometry x="-359.5" y="-280" width="10" height="19.28" as="geometry" />
        </mxCell>
        <mxCell id="6sBdYNOKg4DvN8dYeQ6p-543" value="" style="verticalLabelPosition=bottom;html=1;verticalAlign=top;align=center;shape=mxgraph.floorplan.wall;fillColor=strokeColor;strokeColor=default;fontFamily=Helvetica;fontSize=12;fontColor=default;" vertex="1" parent="1">
          <mxGeometry x="-349" y="-280" width="509" height="10" as="geometry" />
        </mxCell>
      </root>
    </mxGraphModel>
  </diagram>
</mxfile>
